<?xml version="1.0" encoding="UTF-8" standalone="no"?>
<svg
   width="24"
   height="24"
   viewBox="0 0 24 24"
   version="1.1"
   id="svg540"
   fill="#fff"
   xmlns="http://www.w3.org/2000/svg"
   xmlns:svg="http://www.w3.org/2000/svg">
  <defs
     id="defs544" />
  <path
     d="m 11.600948,9.0683538 a 0.999,0.999 0 0 0 1.368028,0.3576218 L 19.071002,5.8531233 18.060598,4.1274708 12.821401,7.1951251 11.182889,4.3967368 A 0.999,0.999 0 0 0 9.8148609,4.0391126 L 3.712834,7.6119789 4.7232377,9.3376222 9.9624384,6.2699668 Z"
     id="path538" />
  <path
     d="m 10.233553,19.206052 a 0.999,0.999 0 0 0 0.998344,1.001351 l 7.071064,0.01063 0.003,-1.999696 -6.071211,-0.0091 0.0049,-3.242788 a 0.999,0.999 0 0 0 -0.998343,-1.001352 l -7.0710677,-0.01063 -0.00301,1.999695 6.0712197,0.0091 z"
     id="path538-3" />
</svg>
