<?xml version="1.0" encoding="UTF-8" standalone="no"?>
<svg
   width="24"
   height="24"
   viewBox="0 0 24 24"
   fill="#fff"
   version="1.1"
   id="svg294"
   xmlns="http://www.w3.org/2000/svg"
   xmlns:svg="http://www.w3.org/2000/svg">
  <defs
     id="defs298" />
  <path
     d="M22 7.999a1 1 0 0 0-.516-.874l-9.022-5a1.003 1.003 0 0 0-.968 0l-8.978 4.96a1 1 0 0 0-.003 1.748l9.022 5.04a.995.995 0 0 0 .973.001l8.978-5A1 1 0 0 0 22 7.999zm-9.977 3.855L5.06 7.965l6.917-3.822 6.964 3.859-6.918 3.852z"
     id="path288"
     style="fill:#ffffff" />
  <path
     d="M20.515 11.126 12 15.856l-8.515-4.73-.971 1.748 9 5a1 1 0 0 0 .971 0l9-5-.97-1.748z"
     id="path290"
     style="fill:#ffffff" />
  <path
     d="m 16.031324,23.924214 2.29,-2.3 2.29,2.3 1.42,-1.42 -2.3,-2.29 2.3,-2.29 -1.42,-1.42 -2.29,2.3 -2.29,-2.3 -1.42,1.42 2.29,2.29 -2.29,2.29 z"
     id="path371" />
</svg>
