<?xml version="1.0" encoding="UTF-8" standalone="no"?>
<svg
   xmlns:dc="http://purl.org/dc/elements/1.1/"
   xmlns:cc="http://creativecommons.org/ns#"
   xmlns:rdf="http://www.w3.org/1999/02/22-rdf-syntax-ns#"
   xmlns:svg="http://www.w3.org/2000/svg"
   xmlns="http://www.w3.org/2000/svg"
   xmlns:sodipodi="http://sodipodi.sourceforge.net/DTD/sodipodi-0.dtd"
   xmlns:inkscape="http://www.inkscape.org/namespaces/inkscape"
   width="16"
   height="16"
   fill="currentColor"
   class="bi bi-input-cursor"
   viewBox="0 0 16 16"
   version="1.1"
   id="svg6"
   sodipodi:docname="clamped.svg"
   inkscape:version="1.0.1 (3bc2e813f5, 2020-09-07)">
  <metadata
     id="metadata12">
    <rdf:RDF>
      <cc:Work
         rdf:about="">
        <dc:format>image/svg+xml</dc:format>
        <dc:type
           rdf:resource="http://purl.org/dc/dcmitype/StillImage" />
        <dc:title></dc:title>
      </cc:Work>
    </rdf:RDF>
  </metadata>
  <defs
     id="defs10" />
  <sodipodi:namedview
     pagecolor="#ffffff"
     bordercolor="#666666"
     borderopacity="1"
     objecttolerance="10"
     gridtolerance="10"
     guidetolerance="10"
     inkscape:pageopacity="0"
     inkscape:pageshadow="2"
     inkscape:window-width="1920"
     inkscape:window-height="1013"
     id="namedview8"
     showgrid="false"
     inkscape:zoom="37.432465"
     inkscape:cx="7.5813851"
     inkscape:cy="7.3309986"
     inkscape:window-x="-8"
     inkscape:window-y="-8"
     inkscape:window-maximized="1"
     inkscape:current-layer="svg6" />
  <path
     d="M 5,6 V 2 A 1,1 0 0 1 6,1 h 4 a 1,1 0 0 1 1,1 v 4 h 1 V 2 A 2,2 0 0 0 10,0 H 6 A 2,2 0 0 0 4,2 v 4 z m 0,4 H 4 v 4 a 2,2 0 0 0 2,2 h 4 a 2,2 0 0 0 2,-2 v -4 h -1 v 4 a 1,1 0 0 1 -1,1 H 6 A 1,1 0 0 1 5,14 Z"
     id="path2" />
  <path
     fill-rule="evenodd"
     d="M 1,8 A 0.5,0.5 0 0 1 1.5,7.5 h 13 a 0.5,0.5 0 0 1 0,1 H 1.5 A 0.5,0.5 0 0 1 1,8 Z"
     id="path4" />
</svg>
