<?xml version="1.0" encoding="UTF-8" standalone="no"?>
<svg
   xmlns:dc="http://purl.org/dc/elements/1.1/"
   xmlns:cc="http://creativecommons.org/ns#"
   xmlns:rdf="http://www.w3.org/1999/02/22-rdf-syntax-ns#"
   xmlns:svg="http://www.w3.org/2000/svg"
   xmlns="http://www.w3.org/2000/svg"
   xmlns:xlink="http://www.w3.org/1999/xlink"
   xmlns:sodipodi="http://sodipodi.sourceforge.net/DTD/sodipodi-0.dtd"
   xmlns:inkscape="http://www.inkscape.org/namespaces/inkscape"
   xml:space="preserve"
   width="240"
   height="240"
   style="fill-rule:evenodd;image-rendering:optimizeQuality;shape-rendering:geometricPrecision;text-rendering:geometricPrecision"
   viewBox="0 0 240 239.48165"
   id="svg9806"
   sodipodi:version="0.32"
   inkscape:version="1.0.1 (3bc2e813f5, 2020-09-07)"
   sodipodi:docname="tilted_plane.svg"
   inkscape:output_extension="org.inkscape.output.svg.inkscape"
   version="1.1"><metadata
   id="metadata9864"><rdf:RDF><cc:Work
       rdf:about=""><dc:format>image/svg+xml</dc:format><dc:type
         rdf:resource="http://purl.org/dc/dcmitype/StillImage" /><dc:title /></cc:Work></rdf:RDF></metadata><sodipodi:namedview
   inkscape:window-height="1013"
   inkscape:window-width="1920"
   inkscape:pageshadow="2"
   inkscape:pageopacity="0.0"
   guidetolerance="10.0"
   gridtolerance="10.0"
   objecttolerance="10.0"
   borderopacity="1.0"
   bordercolor="#666666"
   pagecolor="#ffffff"
   id="base"
   showgrid="false"
   inkscape:zoom="1.5211196"
   inkscape:cx="320.51898"
   inkscape:cy="95.16424"
   inkscape:window-x="-8"
   inkscape:window-y="-8"
   inkscape:current-layer="svg9806"
   inkscape:window-maximized="1"
   inkscape:document-rotation="0"
   fit-margin-top="5"
   fit-margin-left="5"
   fit-margin-right="5"
   fit-margin-bottom="5"
   lock-margins="true" />
 <defs
   id="defs9808"><linearGradient
     inkscape:collect="always"
     id="linearGradient846"><stop
       style="stop-color:#141414;stop-opacity:1"
       offset="0"
       id="stop842" /><stop
       style="stop-color:#757575;stop-opacity:0"
       offset="1"
       id="stop844" /></linearGradient><inkscape:perspective
     sodipodi:type="inkscape:persp3d"
     inkscape:vp_x="0 : 8.9816418 : 1"
     inkscape:vp_y="0 : 1000.0001 : 0"
     inkscape:vp_z="500 : 8.9816418 : 1"
     inkscape:persp3d-origin="250 : -68.185033 : 1"
     id="perspective52" /><linearGradient
     inkscape:collect="always"
     xlink:href="#linearGradient846"
     id="linearGradient848"
     x1="211.63562"
     y1="172.35162"
     x2="209.1918"
     y2="352.02554"
     gradientUnits="userSpaceOnUse"
     gradientTransform="matrix(1,0,0,1.1716656,-105.52815,-189.118)" /></defs>
 <path
   style="fill:url(#linearGradient848);fill-opacity:1;stroke:#000000;stroke-width:4;stroke-miterlimit:4;stroke-dasharray:none"
   id="path9819"
   d="M 236.17637,115.63007 119.45293,33.240333 3.1256457,101.63918 118.45516,204.34372 Z"
   class="fil3 str0"
   sodipodi:nodetypes="ccccc" />
<g
   sodipodi:type="inkscape:box3d"
   id="g850"
   style="opacity:0.998;fill:#f8f8f8;fill-opacity:0;stroke:#844435;stroke-width:10.2841;stroke-linecap:round;paint-order:markers stroke fill"
   inkscape:perspectiveID="#perspective52"
   inkscape:corner0="1.4116457 : 0.094977989 : 0 : 1"
   inkscape:corner7="0.35124875 : 0.0056644554 : 0.25 : 1"><path
     sodipodi:type="inkscape:box3dside"
     id="path862"
     style="fill:#e9e9ff;fill-rule:evenodd;stroke:none;stroke-width:1px;stroke-linecap:butt;stroke-linejoin:round;stroke-opacity:1"
     inkscape:box3dsidetype="11"
     d="m 140.89028,224.09556 93.30194,-4.44114 v 55.89816 l -93.30194,-17.82863 z"
     points="234.19222,219.65442 234.19222,275.55258 140.89028,257.72395 140.89028,224.09556 " /><path
     sodipodi:type="inkscape:box3dside"
     id="path852"
     style="fill:#353564;fill-rule:evenodd;stroke:none;stroke-width:1px;stroke-linecap:butt;stroke-linejoin:round;stroke-opacity:1"
     inkscape:box3dsidetype="6"
     d="m 103.66365,223.40036 v 37.11443 l 37.22663,-2.79084 v -33.62839 z"
     points="103.66365,260.51479 140.89028,257.72395 140.89028,224.09556 103.66365,223.40036 " /><path
     sodipodi:type="inkscape:box3dside"
     id="path860"
     style="fill:#afafde;fill-rule:evenodd;stroke:none;stroke-width:1px;stroke-linecap:butt;stroke-linejoin:round;stroke-opacity:1"
     inkscape:box3dsidetype="13"
     d="m 103.66365,260.51479 81.3504,23.3173 49.17817,-8.27951 -93.30194,-17.82863 z"
     points="185.01405,283.83209 234.19222,275.55258 140.89028,257.72395 103.66365,260.51479 " /><path
     sodipodi:type="inkscape:box3dside"
     id="path854"
     style="fill:#4d4d9f;fill-rule:evenodd;stroke:none;stroke-width:1px;stroke-linecap:butt;stroke-linejoin:round;stroke-opacity:1"
     inkscape:box3dsidetype="5"
     d="m 103.66365,223.40036 81.3504,-5.80838 49.17817,2.06244 -93.30194,4.44114 z"
     points="185.01405,217.59198 234.19222,219.65442 140.89028,224.09556 103.66365,223.40036 " /><path
     sodipodi:type="inkscape:box3dside"
     id="path858"
     style="fill:#d7d7ff;fill-rule:evenodd;stroke:none;stroke-width:1px;stroke-linecap:butt;stroke-linejoin:round;stroke-opacity:1"
     inkscape:box3dsidetype="14"
     d="m 185.01405,217.59198 v 66.24011 l 49.17817,-8.27951 v -55.89816 z"
     points="185.01405,283.83209 234.19222,275.55258 234.19222,219.65442 185.01405,217.59198 " /><path
     sodipodi:type="inkscape:box3dside"
     id="path856"
     style="fill:#8686bf;fill-rule:evenodd;stroke:none;stroke-width:1px;stroke-linecap:butt;stroke-linejoin:round;stroke-opacity:1"
     inkscape:box3dsidetype="3"
     d="m 103.66365,223.40036 81.3504,-5.80838 v 66.24011 l -81.3504,-23.3173 z"
     points="185.01405,217.59198 185.01405,283.83209 103.66365,260.51479 103.66365,223.40036 " /></g><g
   sodipodi:type="inkscape:box3d"
   id="g864"
   style="opacity:0.998;fill:#f8f8f8;fill-opacity:0;stroke:#844435;stroke-width:10.2841;stroke-linecap:round;paint-order:markers stroke fill"
   inkscape:perspectiveID="#perspective52"
   inkscape:corner0="0.54984726 : 0.078548465 : 0 : 1"
   inkscape:corner7="0.34449251 : 0.03159162 : 0.25 : 1"><path
     sodipodi:type="inkscape:box3dside"
     id="path876"
     style="fill:#e9e9ff;fill-rule:evenodd;stroke:none;stroke-width:1px;stroke-linecap:butt;stroke-linejoin:round;stroke-opacity:1"
     inkscape:box3dsidetype="11"
     d="m 208.35101,230.0325 26.83354,-0.0991 v 29.51315 l -26.83354,-3.26824 z"
     points="235.18455,229.93341 235.18455,259.44656 208.35101,256.17832 208.35101,230.0325 " /><path
     sodipodi:type="inkscape:box3dside"
     id="path866"
     style="fill:#353564;fill-rule:evenodd;stroke:none;stroke-width:1px;stroke-linecap:butt;stroke-linejoin:round;stroke-opacity:1"
     inkscape:box3dsidetype="6"
     d="m 161.30622,229.90839 v 30.36331 l 47.04479,-4.09338 V 230.0325 Z"
     points="161.30622,260.2717 208.35101,256.17832 208.35101,230.0325 161.30622,229.90839 " /><path
     sodipodi:type="inkscape:box3dside"
     id="path874"
     style="fill:#afafde;fill-rule:evenodd;stroke:none;stroke-width:1px;stroke-linecap:butt;stroke-linejoin:round;stroke-opacity:1"
     inkscape:box3dsidetype="13"
     d="m 161.30622,260.2717 24.63755,4.50115 49.24078,-5.32629 -26.83354,-3.26824 z"
     points="185.94377,264.77285 235.18455,259.44656 208.35101,256.17832 161.30622,260.2717 " /><path
     sodipodi:type="inkscape:box3dside"
     id="path868"
     style="fill:#4d4d9f;fill-rule:evenodd;stroke:none;stroke-width:1px;stroke-linecap:butt;stroke-linejoin:round;stroke-opacity:1"
     inkscape:box3dsidetype="5"
     d="m 161.30622,229.90839 24.63755,-0.13647 49.24078,0.16149 -26.83354,0.0991 z"
     points="185.94377,229.77192 235.18455,229.93341 208.35101,230.0325 161.30622,229.90839 " /><path
     sodipodi:type="inkscape:box3dside"
     id="path872"
     style="fill:#d7d7ff;fill-rule:evenodd;stroke:none;stroke-width:1px;stroke-linecap:butt;stroke-linejoin:round;stroke-opacity:1"
     inkscape:box3dsidetype="14"
     d="m 185.94377,229.77192 v 35.00093 l 49.24078,-5.32629 v -29.51315 z"
     points="185.94377,264.77285 235.18455,259.44656 235.18455,229.93341 185.94377,229.77192 " /><path
     sodipodi:type="inkscape:box3dside"
     id="path870"
     style="fill:#8686bf;fill-rule:evenodd;stroke:none;stroke-width:1px;stroke-linecap:butt;stroke-linejoin:round;stroke-opacity:1"
     inkscape:box3dsidetype="3"
     d="m 161.30622,229.90839 24.63755,-0.13647 v 35.00093 l -24.63755,-4.50115 z"
     points="185.94377,229.77192 185.94377,264.77285 161.30622,260.2717 161.30622,229.90839 " /></g><g
   sodipodi:type="inkscape:box3d"
   id="g878"
   style="opacity:0.998;fill:#f8f8f8;fill-opacity:0;stroke:#844435;stroke-width:10.2841;stroke-linecap:round;paint-order:markers stroke fill"
   inkscape:perspectiveID="#perspective52"
   inkscape:corner0="0.82304068 : 0.11684527 : 0 : 1"
   inkscape:corner7="0.34449251 : 0.03159162 : 0.25 : 1"><path
     sodipodi:type="inkscape:box3dside"
     id="path890"
     style="fill:#e9e9ff;fill-rule:evenodd;stroke:none;stroke-width:1px;stroke-linecap:butt;stroke-linejoin:round;stroke-opacity:1"
     inkscape:box3dsidetype="11"
     d="m 180.8937,211.62017 54.29085,-5.75692 v 53.58331 l -54.29085,-6.61244 z"
     points="235.18455,205.86325 235.18455,259.44656 180.8937,252.83412 180.8937,211.62017 " /><path
     sodipodi:type="inkscape:box3dside"
     id="path880"
     style="fill:#353564;fill-rule:evenodd;stroke:none;stroke-width:1px;stroke-linecap:butt;stroke-linejoin:round;stroke-opacity:1"
     inkscape:box3dsidetype="6"
     d="m 137.13353,208.98972 v 46.86576 l 43.76017,-3.02136 v -41.21395 z"
     points="137.13353,255.85548 180.8937,252.83412 180.8937,211.62017 137.13353,208.98972 " /><path
     sodipodi:type="inkscape:box3dside"
     id="path888"
     style="fill:#afafde;fill-rule:evenodd;stroke:none;stroke-width:1px;stroke-linecap:butt;stroke-linejoin:round;stroke-opacity:1"
     inkscape:box3dsidetype="13"
     d="m 137.13353,255.85548 48.81024,8.91737 49.24078,-5.32629 -54.29085,-6.61244 z"
     points="185.94377,264.77285 235.18455,259.44656 180.8937,252.83412 137.13353,255.85548 " /><path
     sodipodi:type="inkscape:box3dside"
     id="path882"
     style="fill:#4d4d9f;fill-rule:evenodd;stroke:none;stroke-width:1px;stroke-linecap:butt;stroke-linejoin:round;stroke-opacity:1"
     inkscape:box3dsidetype="5"
     d="m 137.13353,208.98972 48.81024,-7.76366 49.24078,4.63719 -54.29085,5.75692 z"
     points="185.94377,201.22606 235.18455,205.86325 180.8937,211.62017 137.13353,208.98972 " /><path
     sodipodi:type="inkscape:box3dside"
     id="path886"
     style="fill:#d7d7ff;fill-rule:evenodd;stroke:none;stroke-width:1px;stroke-linecap:butt;stroke-linejoin:round;stroke-opacity:1"
     inkscape:box3dsidetype="14"
     d="m 185.94377,201.22606 v 63.54679 l 49.24078,-5.32629 v -53.58331 z"
     points="185.94377,264.77285 235.18455,259.44656 235.18455,205.86325 185.94377,201.22606 " /><path
     sodipodi:type="inkscape:box3dside"
     id="path884"
     style="fill:#8686bf;fill-rule:evenodd;stroke:none;stroke-width:1px;stroke-linecap:butt;stroke-linejoin:round;stroke-opacity:1"
     inkscape:box3dsidetype="3"
     d="m 137.13353,208.98972 48.81024,-7.76366 v 63.54679 l -48.81024,-8.91737 z"
     points="185.94377,201.22606 185.94377,264.77285 137.13353,255.85548 137.13353,208.98972 " /></g><g
   sodipodi:type="inkscape:box3d"
   id="g892"
   style="opacity:0.998;fill:#f8f8f8;fill-opacity:0;stroke:#844435;stroke-width:10.2841;stroke-linecap:round;paint-order:markers stroke fill"
   inkscape:perspectiveID="#perspective52"
   inkscape:corner0="0.12041042 : 0.046783301 : 0 : 1"
   inkscape:corner7="0.062995014 : 0.020997666 : 0.25 : 1"><path
     sodipodi:type="inkscape:box3dside"
     id="path904"
     style="fill:#e9e9ff;fill-rule:evenodd;stroke:none;stroke-width:1px;stroke-linecap:butt;stroke-linejoin:round;stroke-opacity:1"
     inkscape:box3dsidetype="11"
     d="m 273.64065,253.02088 11.96592,0.97161 v 19.6813 l -11.96592,-1.79618 z"
     points="285.60657,253.99249 285.60657,273.67379 273.64065,271.87761 273.64065,253.02088 " /><path
     sodipodi:type="inkscape:box3dside"
     id="path894"
     style="fill:#353564;fill-rule:evenodd;stroke:none;stroke-width:1px;stroke-linecap:butt;stroke-linejoin:round;stroke-opacity:1"
     inkscape:box3dsidetype="6"
     d="m 223.13252,257.97866 v 23.06427 l 50.50813,-9.16532 v -18.85673 z"
     points="223.13252,281.04293 273.64065,271.87761 273.64065,253.02088 223.13252,257.97866 " /><path
     sodipodi:type="inkscape:box3dside"
     id="path902"
     style="fill:#afafde;fill-rule:evenodd;stroke:none;stroke-width:1px;stroke-linecap:butt;stroke-linejoin:round;stroke-opacity:1"
     inkscape:box3dsidetype="13"
     d="m 223.13252,281.04293 12.05203,2.71366 50.42202,-10.0828 -11.96592,-1.79618 z"
     points="235.18455,283.75659 285.60657,273.67379 273.64065,271.87761 223.13252,281.04293 " /><path
     sodipodi:type="inkscape:box3dside"
     id="path896"
     style="fill:#4d4d9f;fill-rule:evenodd;stroke:none;stroke-width:1px;stroke-linecap:butt;stroke-linejoin:round;stroke-opacity:1"
     inkscape:box3dsidetype="5"
     d="m 223.13252,257.97866 12.05203,1.4679 50.42202,-5.45407 -11.96592,-0.97161 z"
     points="235.18455,259.44656 285.60657,253.99249 273.64065,253.02088 223.13252,257.97866 " /><path
     sodipodi:type="inkscape:box3dside"
     id="path900"
     style="fill:#d7d7ff;fill-rule:evenodd;stroke:none;stroke-width:1px;stroke-linecap:butt;stroke-linejoin:round;stroke-opacity:1"
     inkscape:box3dsidetype="14"
     d="m 235.18455,259.44656 v 24.31003 l 50.42202,-10.0828 v -19.6813 z"
     points="235.18455,283.75659 285.60657,273.67379 285.60657,253.99249 235.18455,259.44656 " /><path
     sodipodi:type="inkscape:box3dside"
     id="path898"
     style="fill:#8686bf;fill-rule:evenodd;stroke:none;stroke-width:1px;stroke-linecap:butt;stroke-linejoin:round;stroke-opacity:1"
     inkscape:box3dsidetype="3"
     d="m 223.13252,257.97866 12.05203,1.4679 v 24.31003 l -12.05203,-2.71366 z"
     points="235.18455,259.44656 235.18455,283.75659 223.13252,281.04293 223.13252,257.97866 " /></g><g
   sodipodi:type="inkscape:box3d"
   id="g906"
   style="opacity:0.998;fill:#f8f8f8;fill-opacity:0;stroke:#844435;stroke-width:10.2841;stroke-linecap:round;paint-order:markers stroke fill"
   inkscape:perspectiveID="#perspective52"
   inkscape:corner0="0.51492113 : 0.05954431 : 0 : 1"
   inkscape:corner7="0.18718985 : 0.038575853 : 0.25 : 1"><path
     sodipodi:type="inkscape:box3dside"
     id="path918"
     style="fill:#e9e9ff;fill-rule:evenodd;stroke:none;stroke-width:1px;stroke-linecap:butt;stroke-linejoin:round;stroke-opacity:1"
     inkscape:box3dsidetype="11"
     d="m 212.47408,240.80829 48.45178,2.28182 v 14.62148 l -48.45178,-4.99691 z"
     points="260.92586,243.09011 260.92586,257.71159 212.47408,252.71468 212.47408,240.80829 " /><path
     sodipodi:type="inkscape:box3dside"
     id="path908"
     style="fill:#353564;fill-rule:evenodd;stroke:none;stroke-width:1px;stroke-linecap:butt;stroke-linejoin:round;stroke-opacity:1"
     inkscape:box3dsidetype="6"
     d="m 165.02509,242.4596 v 13.87124 l 47.44899,-3.61616 v -11.90639 z"
     points="165.02509,256.33084 212.47408,252.71468 212.47408,240.80829 165.02509,242.4596 " /><path
     sodipodi:type="inkscape:box3dside"
     id="path916"
     style="fill:#afafde;fill-rule:evenodd;stroke:none;stroke-width:1px;stroke-linecap:butt;stroke-linejoin:round;stroke-opacity:1"
     inkscape:box3dsidetype="13"
     d="m 165.02509,256.33084 45.55623,7.04743 50.34454,-5.66668 -48.45178,-4.99691 z"
     points="210.58132,263.37827 260.92586,257.71159 212.47408,252.71468 165.02509,256.33084 " /><path
     sodipodi:type="inkscape:box3dside"
     id="path910"
     style="fill:#4d4d9f;fill-rule:evenodd;stroke:none;stroke-width:1px;stroke-linecap:butt;stroke-linejoin:round;stroke-opacity:1"
     inkscape:box3dsidetype="5"
     d="m 165.02509,242.4596 45.55623,3.21818 50.34454,-2.58767 -48.45178,-2.28182 z"
     points="210.58132,245.67778 260.92586,243.09011 212.47408,240.80829 165.02509,242.4596 " /><path
     sodipodi:type="inkscape:box3dside"
     id="path914"
     style="fill:#d7d7ff;fill-rule:evenodd;stroke:none;stroke-width:1px;stroke-linecap:butt;stroke-linejoin:round;stroke-opacity:1"
     inkscape:box3dsidetype="14"
     d="m 210.58132,245.67778 v 17.70049 l 50.34454,-5.66668 v -14.62148 z"
     points="210.58132,263.37827 260.92586,257.71159 260.92586,243.09011 210.58132,245.67778 " /><path
     sodipodi:type="inkscape:box3dside"
     id="path912"
     style="fill:#8686bf;fill-rule:evenodd;stroke:none;stroke-width:1px;stroke-linecap:butt;stroke-linejoin:round;stroke-opacity:1"
     inkscape:box3dsidetype="3"
     d="m 165.02509,242.4596 45.55623,3.21818 v 17.70049 l -45.55623,-7.04743 z"
     points="210.58132,245.67778 210.58132,263.37827 165.02509,256.33084 165.02509,242.4596 " /></g><g
   sodipodi:type="inkscape:box3d"
   id="g920"
   style="opacity:0.998;fill:#f8f8f8;fill-opacity:0;stroke:#844435;stroke-width:10.2841;stroke-linecap:round;paint-order:markers stroke fill"
   inkscape:perspectiveID="#perspective52"
   inkscape:corner0="0.22784705 : 0.21153454 : 0 : 1"
   inkscape:corner7="-0.036206088 : 0.12139087 : 0.25 : 1"><path
     sodipodi:type="inkscape:box3dside"
     id="path932"
     style="fill:#e9e9ff;fill-rule:evenodd;stroke:none;stroke-width:1px;stroke-linecap:butt;stroke-linejoin:round;stroke-opacity:1"
     inkscape:box3dsidetype="11"
     d="m 253.7475,139.68372 55.20116,-19.82217 v 74.42679 l -55.20116,6.52403 z"
     points="308.94866,119.86155 308.94866,194.28834 253.7475,200.81237 253.7475,139.68372 " /><path
     sodipodi:type="inkscape:box3dside"
     id="path922"
     style="fill:#353564;fill-rule:evenodd;stroke:none;stroke-width:1px;stroke-linecap:butt;stroke-linejoin:round;stroke-opacity:1"
     inkscape:box3dsidetype="6"
     d="m 203.60842,121.1313 v 73.57495 l 50.13908,6.10612 v -61.12865 z"
     points="203.60842,194.70625 253.7475,200.81237 253.7475,139.68372 203.60842,121.1313 " /><path
     sodipodi:type="inkscape:box3dside"
     id="path924"
     style="fill:#4d4d9f;fill-rule:evenodd;stroke:none;stroke-width:1px;stroke-linecap:butt;stroke-linejoin:round;stroke-opacity:1"
     inkscape:box3dsidetype="5"
     d="m 203.60842,121.1313 55.78313,-30.046742 49.55711,28.776992 -55.20116,19.82217 z"
     points="259.39155,91.084558 308.94866,119.86155 253.7475,139.68372 203.60842,121.1313 " /><path
     sodipodi:type="inkscape:box3dside"
     id="path930"
     style="fill:#afafde;fill-rule:evenodd;stroke:none;stroke-width:1px;stroke-linecap:butt;stroke-linejoin:round;stroke-opacity:1"
     inkscape:box3dsidetype="13"
     d="m 203.60842,194.70625 55.78313,-9.88922 49.55711,9.47131 -55.20116,6.52403 z"
     points="259.39155,184.81703 308.94866,194.28834 253.7475,200.81237 203.60842,194.70625 " /><path
     sodipodi:type="inkscape:box3dside"
     id="path928"
     style="fill:#d7d7ff;fill-rule:evenodd;stroke:none;stroke-width:1px;stroke-linecap:butt;stroke-linejoin:round;stroke-opacity:1"
     inkscape:box3dsidetype="14"
     d="m 259.39155,91.084558 v 93.732472 l 49.55711,9.47131 v -74.42679 z"
     points="259.39155,184.81703 308.94866,194.28834 308.94866,119.86155 259.39155,91.084558 " /><path
     sodipodi:type="inkscape:box3dside"
     id="path926"
     style="fill:#8686bf;fill-rule:evenodd;stroke:none;stroke-width:1px;stroke-linecap:butt;stroke-linejoin:round;stroke-opacity:1"
     inkscape:box3dsidetype="3"
     d="m 203.60842,121.1313 55.78313,-30.046742 v 93.732472 l -55.78313,9.88922 z"
     points="259.39155,91.084558 259.39155,184.81703 203.60842,194.70625 203.60842,121.1313 " /></g><g
   sodipodi:type="inkscape:box3d"
   id="g936"
   style="opacity:0.998;fill:#f8f8f8;fill-opacity:0;stroke:#844435;stroke-width:10.2841;stroke-linecap:round;paint-order:markers stroke fill"
   inkscape:perspectiveID="#perspective52"
   inkscape:corner0="8.4350348 : 1.1665721 : 0 : 1"
   inkscape:corner7="4.7827635 : 0.64561928 : 0.25 : 1"><path
     sodipodi:type="inkscape:box3dside"
     id="path948"
     style="fill:#e9e9ff;fill-rule:evenodd;stroke:none;stroke-width:1px;stroke-linecap:butt;stroke-linejoin:round;stroke-opacity:1"
     inkscape:box3dsidetype="11"
     d="M 38.71953,118.07504 62.160567,49.829525 V 136.37037 L 38.71953,171.98093 Z"
     points="62.160567,49.829525 62.160567,136.37037 38.71953,171.98093 38.71953,118.07504 " /><path
     sodipodi:type="inkscape:box3dside"
     id="path938"
     style="fill:#353564;fill-rule:evenodd;stroke:none;stroke-width:1px;stroke-linecap:butt;stroke-linejoin:round;stroke-opacity:1"
     inkscape:box3dsidetype="6"
     d="m 26.496988,115.08812 v 55.33423 l 12.222542,1.55858 v -53.90589 z"
     points="26.496988,170.42235 38.71953,171.98093 38.71953,118.07504 26.496988,115.08812 " /><path
     sodipodi:type="inkscape:box3dside"
     id="path940"
     style="fill:#4d4d9f;fill-rule:evenodd;stroke:none;stroke-width:1px;stroke-linecap:butt;stroke-linejoin:round;stroke-opacity:1"
     inkscape:box3dsidetype="5"
     d="M 26.496988,115.08812 43.231925,42.005741 62.160567,49.829525 38.71953,118.07504 Z"
     points="43.231925,42.005741 62.160567,49.829525 38.71953,118.07504 26.496988,115.08812 " /><path
     sodipodi:type="inkscape:box3dside"
     id="path946"
     style="fill:#afafde;fill-rule:evenodd;stroke:none;stroke-width:1px;stroke-linecap:butt;stroke-linejoin:round;stroke-opacity:1"
     inkscape:box3dsidetype="13"
     d="m 26.496988,170.42235 16.734937,-38.13444 18.928642,4.08246 -23.441037,35.61056 z"
     points="43.231925,132.28791 62.160567,136.37037 38.71953,171.98093 26.496988,170.42235 " /><path
     sodipodi:type="inkscape:box3dside"
     id="path944"
     style="fill:#d7d7ff;fill-rule:evenodd;stroke:none;stroke-width:1px;stroke-linecap:butt;stroke-linejoin:round;stroke-opacity:1"
     inkscape:box3dsidetype="14"
     d="m 43.231925,42.005741 v 90.282169 l 18.928642,4.08246 V 49.829525 Z"
     points="43.231925,132.28791 62.160567,136.37037 62.160567,49.829525 43.231925,42.005741 " /><path
     sodipodi:type="inkscape:box3dside"
     id="path942"
     style="fill:#8686bf;fill-rule:evenodd;stroke:none;stroke-width:1px;stroke-linecap:butt;stroke-linejoin:round;stroke-opacity:1"
     inkscape:box3dsidetype="3"
     d="M 26.496988,115.08812 43.231925,42.005741 v 90.282169 l -16.734937,38.13444 z"
     points="43.231925,42.005741 43.231925,132.28791 26.496988,170.42235 26.496988,115.08812 " /></g><g
   sodipodi:type="inkscape:box3d"
   id="g950"
   style="opacity:0.998;fill:#f8f8f8;fill-opacity:0;stroke:#844435;stroke-width:10.2841;stroke-linecap:round;paint-order:markers stroke fill"
   inkscape:perspectiveID="#perspective52"
   inkscape:corner0="7.0268211 : 0.91833881 : 0 : 1"
   inkscape:corner7="4.3247228 : 0.53884579 : 0.25 : 1"><path
     sodipodi:type="inkscape:box3dside"
     id="path962"
     style="fill:#e9e9ff;fill-rule:evenodd;stroke:none;stroke-width:1px;stroke-linecap:butt;stroke-linejoin:round;stroke-opacity:1"
     inkscape:box3dsidetype="11"
     d="M 45.30725,128.95205 67.267919,79.584886 V 147.80612 L 45.30725,174.90139 Z"
     points="67.267919,79.584886 67.267919,147.80612 45.30725,174.90139 45.30725,128.95205 " /><path
     sodipodi:type="inkscape:box3dside"
     id="path952"
     style="fill:#353564;fill-rule:evenodd;stroke:none;stroke-width:1px;stroke-linecap:butt;stroke-linejoin:round;stroke-opacity:1"
     inkscape:box3dsidetype="6"
     d="m 31.14558,125.77988 v 47.38046 l 14.16167,1.74105 v -45.94934 z"
     points="31.14558,173.16034 45.30725,174.90139 45.30725,128.95205 31.14558,125.77988 " /><path
     sodipodi:type="inkscape:box3dside"
     id="path954"
     style="fill:#4d4d9f;fill-rule:evenodd;stroke:none;stroke-width:1px;stroke-linecap:butt;stroke-linejoin:round;stroke-opacity:1"
     inkscape:box3dsidetype="5"
     d="M 31.14558,125.77988 46.950801,72.485127 67.267919,79.584886 45.30725,128.95205 Z"
     points="46.950801,72.485127 67.267919,79.584886 45.30725,128.95205 31.14558,125.77988 " /><path
     sodipodi:type="inkscape:box3dside"
     id="path960"
     style="fill:#afafde;fill-rule:evenodd;stroke:none;stroke-width:1px;stroke-linecap:butt;stroke-linejoin:round;stroke-opacity:1"
     inkscape:box3dsidetype="13"
     d="M 31.14558,173.16034 46.950801,143.9094 67.267919,147.80612 45.30725,174.90139 Z"
     points="46.950801,143.9094 67.267919,147.80612 45.30725,174.90139 31.14558,173.16034 " /><path
     sodipodi:type="inkscape:box3dside"
     id="path958"
     style="fill:#d7d7ff;fill-rule:evenodd;stroke:none;stroke-width:1px;stroke-linecap:butt;stroke-linejoin:round;stroke-opacity:1"
     inkscape:box3dsidetype="14"
     d="M 46.950801,72.485127 V 143.9094 l 20.317118,3.89672 V 79.584886 Z"
     points="46.950801,143.9094 67.267919,147.80612 67.267919,79.584886 46.950801,72.485127 " /><path
     sodipodi:type="inkscape:box3dside"
     id="path956"
     style="fill:#8686bf;fill-rule:evenodd;stroke:none;stroke-width:1px;stroke-linecap:butt;stroke-linejoin:round;stroke-opacity:1"
     inkscape:box3dsidetype="3"
     d="M 31.14558,125.77988 46.950801,72.485127 V 143.9094 L 31.14558,173.16034 Z"
     points="46.950801,72.485127 46.950801,143.9094 31.14558,173.16034 31.14558,125.77988 " /></g><g
   sodipodi:type="inkscape:box3d"
   id="g964"
   style="opacity:0.998;fill:#f8f8f8;fill-opacity:0;stroke:#844435;stroke-width:10.2841;stroke-linecap:round;paint-order:markers stroke fill"
   inkscape:perspectiveID="#perspective52"
   inkscape:corner0="1.3281256 : 0.56304364 : 0 : 1"
   inkscape:corner7="0.034225005 : 0.17451465 : 0.25 : 1"><path
     sodipodi:type="inkscape:box3dside"
     id="path976"
     style="fill:#e9e9ff;fill-rule:evenodd;stroke:none;stroke-width:1px;stroke-linecap:butt;stroke-linejoin:round;stroke-opacity:1"
     inkscape:box3dsidetype="11"
     d="M 145.45451,41.932633 292.0049,-148.3596 v 303.19451 l -146.55039,38.12604 z"
     points="292.0049,-148.3596 292.0049,154.83491 145.45451,192.96095 145.45451,41.932633 " /><path
     sodipodi:type="inkscape:box3dside"
     id="path966"
     style="fill:#353564;fill-rule:evenodd;stroke:none;stroke-width:1px;stroke-linecap:butt;stroke-linejoin:round;stroke-opacity:1"
     inkscape:box3dsidetype="6"
     d="M 107.38252,21.651375 V 188.8975 l 38.07199,4.06345 V 41.932633 Z"
     points="107.38252,188.8975 145.45451,192.96095 145.45451,41.932633 107.38252,21.651375 " /><path
     sodipodi:type="inkscape:box3dside"
     id="path968"
     style="fill:#4d4d9f;fill-rule:evenodd;stroke:none;stroke-width:1px;stroke-linecap:butt;stroke-linejoin:round;stroke-opacity:1"
     inkscape:box3dsidetype="5"
     d="M 107.38252,21.651375 241.7269,-240.01314 292.0049,-148.3596 145.45451,41.932633 Z"
     points="241.7269,-240.01314 292.0049,-148.3596 145.45451,41.932633 107.38252,21.651375 " /><path
     sodipodi:type="inkscape:box3dside"
     id="path974"
     style="fill:#afafde;fill-rule:evenodd;stroke:none;stroke-width:1px;stroke-linecap:butt;stroke-linejoin:round;stroke-opacity:1"
     inkscape:box3dsidetype="13"
     d="m 107.38252,188.8975 134.34438,-52.42585 50.278,18.36326 -146.55039,38.12604 z"
     points="241.7269,136.47165 292.0049,154.83491 145.45451,192.96095 107.38252,188.8975 " /><path
     sodipodi:type="inkscape:box3dside"
     id="path972"
     style="fill:#d7d7ff;fill-rule:evenodd;stroke:none;stroke-width:1px;stroke-linecap:butt;stroke-linejoin:round;stroke-opacity:1"
     inkscape:box3dsidetype="14"
     d="m 241.7269,-240.01314 v 376.48479 l 50.278,18.36326 V -148.3596 Z"
     points="241.7269,136.47165 292.0049,154.83491 292.0049,-148.3596 241.7269,-240.01314 " /><path
     sodipodi:type="inkscape:box3dside"
     id="path970"
     style="fill:#8686bf;fill-rule:evenodd;stroke:none;stroke-width:1px;stroke-linecap:butt;stroke-linejoin:round;stroke-opacity:1"
     inkscape:box3dsidetype="3"
     d="M 107.38252,21.651375 241.7269,-240.01314 V 136.47165 L 107.38252,188.8975 Z"
     points="241.7269,-240.01314 241.7269,136.47165 107.38252,188.8975 107.38252,21.651375 " /></g><g
   sodipodi:type="inkscape:box3d"
   id="g978"
   style="opacity:0.998;fill:#f8f8f8;fill-opacity:0;stroke:#844435;stroke-width:10.2841;stroke-linecap:round;paint-order:markers stroke fill"
   inkscape:perspectiveID="#perspective52"
   inkscape:corner0="-0.25265142 : 0.12973914 : 0 : 1"
   inkscape:corner7="-0.43449316 : 0.066391378 : 0.25 : 1"><path
     sodipodi:type="inkscape:box3dside"
     id="path990"
     style="fill:#e9e9ff;fill-rule:evenodd;stroke:none;stroke-width:1px;stroke-linecap:butt;stroke-linejoin:round;stroke-opacity:1"
     inkscape:box3dsidetype="11"
     d="m 375.99693,177.97556 83.8398,-11.77922 v 77.84715 l -83.8398,-2.41427 z"
     points="459.83673,166.19634 459.83673,244.04349 375.99693,241.62922 375.99693,177.97556 " /><path
     sodipodi:type="inkscape:box3dside"
     id="path980"
     style="fill:#353564;fill-rule:evenodd;stroke:none;stroke-width:1px;stroke-linecap:butt;stroke-linejoin:round;stroke-opacity:1"
     inkscape:box3dsidetype="6"
     d="m 334.51592,160.30431 v 84.94682 l 41.48101,-3.62191 v -63.65366 z"
     points="334.51592,245.25113 375.99693,241.62922 375.99693,177.97556 334.51592,160.30431 " /><path
     sodipodi:type="inkscape:box3dside"
     id="path988"
     style="fill:#afafde;fill-rule:evenodd;stroke:none;stroke-width:1px;stroke-linecap:butt;stroke-linejoin:round;stroke-opacity:1"
     inkscape:box3dsidetype="13"
     d="m 334.51592,245.25113 107.56538,4.64623 17.75543,-5.85387 -83.8398,-2.41427 z"
     points="442.0813,249.89736 459.83673,244.04349 375.99693,241.62922 334.51592,245.25113 " /><path
     sodipodi:type="inkscape:box3dside"
     id="path982"
     style="fill:#4d4d9f;fill-rule:evenodd;stroke:none;stroke-width:1px;stroke-linecap:butt;stroke-linejoin:round;stroke-opacity:1"
     inkscape:box3dsidetype="5"
     d="m 334.51592,160.30431 107.56538,-22.66887 17.75543,28.5609 -83.8398,11.77922 z"
     points="442.0813,137.63544 459.83673,166.19634 375.99693,177.97556 334.51592,160.30431 " /><path
     sodipodi:type="inkscape:box3dside"
     id="path986"
     style="fill:#d7d7ff;fill-rule:evenodd;stroke:none;stroke-width:1px;stroke-linecap:butt;stroke-linejoin:round;stroke-opacity:1"
     inkscape:box3dsidetype="14"
     d="m 442.0813,137.63544 v 112.26192 l 17.75543,-5.85387 v -77.84715 z"
     points="442.0813,249.89736 459.83673,244.04349 459.83673,166.19634 442.0813,137.63544 " /><path
     sodipodi:type="inkscape:box3dside"
     id="path984"
     style="fill:#8686bf;fill-rule:evenodd;stroke:none;stroke-width:1px;stroke-linecap:butt;stroke-linejoin:round;stroke-opacity:1"
     inkscape:box3dsidetype="3"
     d="M 334.51592,160.30431 442.0813,137.63544 v 112.26192 l -107.56538,-4.64623 z"
     points="442.0813,137.63544 442.0813,249.89736 334.51592,245.25113 334.51592,160.30431 " /></g></svg>
